<?xml version="1.0" standalone="no"?>
<!DOCTYPE svg PUBLIC "-//W3C//DTD SVG 20010904//EN"
 "http://www.w3.org/TR/2001/REC-SVG-20010904/DTD/svg10.dtd">
<svg version="1.0" xmlns="http://www.w3.org/2000/svg"
 width="216.000000pt" height="233.000000pt" viewBox="0 0 216.000000 233.000000"
 preserveAspectRatio="xMidYMid meet">

<g transform="translate(0.000000,233.000000) scale(0.100000,-0.100000)"
fill="#000000" stroke="none">
<path d="M642 2038 c-6 -6 -12 -22 -12 -33 0 -17 -9 -25 -40 -34 -25 -7 -49
-25 -67 -48 l-28 -36 -3 -661 c-2 -629 -1 -663 16 -696 11 -19 31 -44 46 -55
27 -19 43 -20 509 -23 548 -3 530 -5 574 78 22 41 23 53 23 268 0 174 3 229
13 241 8 9 109 193 226 409 186 342 212 396 206 423 -5 21 -17 35 -40 46 -63
30 -72 18 -244 -299 l-156 -288 -5 273 c-5 261 -6 274 -28 308 -20 33 -73 69
-101 69 -6 0 -11 11 -11 24 0 31 -22 48 -57 44 -22 -2 -30 -10 -38 -35 l-9
-33 -77 0 -76 0 -9 33 c-8 25 -16 33 -37 35 -35 4 -57 -13 -57 -44 0 -23 -2
-24 -85 -24 -83 0 -85 1 -85 24 0 31 -22 48 -57 44 -22 -2 -30 -10 -38 -35
l-9 -33 -77 0 -76 0 -9 33 c-8 26 -15 33 -39 35 -17 2 -36 -3 -43 -10z m53
-98 c0 -78 -2 -85 -20 -85 -18 0 -20 8 -23 74 -3 86 1 104 25 99 16 -3 18 -15
18 -88z m263 78 c18 -18 16 -142 -3 -158 -26 -21 -35 0 -35 79 0 90 9 108 38
79z m267 -78 c0 -78 -2 -85 -20 -85 -18 0 -20 8 -23 74 -3 86 1 104 25 99 16
-3 18 -15 18 -88z m269 74 c9 -24 7 -137 -3 -153 -5 -8 -16 -11 -25 -8 -13 5
-16 22 -16 85 0 43 3 82 7 85 11 12 31 7 37 -9z m-604 -109 c0 -47 3 -57 25
-71 23 -15 27 -15 49 0 20 13 26 25 28 68 l3 53 80 0 80 0 5 -57 c6 -62 6 -63
37 -72 36 -11 63 24 63 84 l0 50 80 0 80 0 0 -55 c0 -47 3 -57 25 -71 23 -15
27 -15 50 0 21 14 25 24 25 66 0 55 15 64 58 34 36 -25 52 -68 52 -139 l0 -65
-555 0 -555 0 0 76 c0 73 1 77 34 110 19 19 43 34 55 34 19 0 21 -6 21 -55 0
-50 3 -56 25 -65 49 -19 75 10 75 84 l0 46 80 0 80 0 0 -55z m1160 -113 c0 -4
-4 -13 -9 -20 -7 -11 -16 -10 -50 7 -36 19 -40 24 -29 40 12 19 13 19 50 0 21
-11 38 -23 38 -27z m-90 -32 c0 -6 -77 -154 -171 -329 -125 -232 -175 -318
-186 -314 -8 3 -13 11 -11 17 2 7 79 152 172 324 146 269 196 346 196 302z
m52 -40 c-2 -7 -78 -152 -170 -321 -146 -270 -192 -341 -192 -298 0 7 75 153
168 325 117 221 171 313 182 311 8 -2 14 -9 12 -17z m-382 -237 l0 -218 -36
-65 c-40 -71 -98 -288 -83 -305 6 -5 30 12 64 45 l55 54 0 -214 c0 -198 -2
-218 -20 -248 -38 -61 -42 -62 -535 -62 -484 0 -491 1 -533 55 -22 28 -22 28
-22 601 l0 574 555 0 555 0 0 -217z m-15 -400 c19 -9 35 -20 35 -23 0 -4 -11
-17 -24 -29 -31 -29 -71 -21 -62 12 3 12 6 30 6 40 0 21 1 21 45 0z m-45 -102
c0 -5 -6 -14 -14 -20 -12 -10 -13 -8 -9 8 5 21 23 30 23 12z"/>
<path d="M1290 1410 l0 -101 98 3 97 3 0 95 0 95 -97 3 -98 3 0 -101z m170 0
l0 -70 -75 0 -75 0 0 70 0 70 75 0 75 0 0 -70z"/>
<path d="M640 1453 c0 -10 43 -13 180 -13 137 0 180 3 180 13 0 9 -43 12 -180
12 -137 0 -180 -3 -180 -12z"/>
<path d="M1080 1453 c0 -9 19 -13 60 -13 78 0 78 17 0 22 -43 2 -60 -1 -60 -9z"/>
<path d="M640 1365 c0 -13 37 -15 274 -15 234 0 275 2 280 15 5 13 -30 15
-274 15 -242 0 -280 -2 -280 -15z"/>
<path d="M1292 1083 l3 -98 92 -3 c108 -3 106 -6 101 118 l-3 75 -98 3 -98 3
3 -98z m168 2 l0 -75 -75 0 -75 0 0 75 0 75 75 0 75 0 0 -75z"/>
<path d="M640 1125 c0 -13 35 -15 277 -13 210 2 277 6 281 16 3 9 -57 12 -277
12 -244 0 -281 -2 -281 -15z"/>
<path d="M640 1040 c0 -6 28 -10 65 -10 37 0 65 4 65 10 0 6 -28 10 -65 10
-37 0 -65 -4 -65 -10z"/>
<path d="M840 1040 c0 -6 67 -10 180 -10 113 0 180 4 180 10 0 6 -67 10 -180
10 -113 0 -180 -4 -180 -10z"/>
<path d="M1290 760 l0 -101 98 3 97 3 0 95 0 95 -97 3 -98 3 0 -101z m131 38
c-20 -32 -28 -35 -61 -27 -26 7 -16 -21 13 -39 26 -15 29 -16 37 -1 5 9 18 27
29 40 l20 24 1 -52 0 -53 -75 0 -75 0 0 70 0 70 66 0 66 0 -21 -32z"/>
<path d="M640 800 c0 -6 100 -10 280 -10 180 0 280 4 280 10 0 6 -100 10 -280
10 -180 0 -280 -4 -280 -10z"/>
<path d="M640 715 c0 -12 18 -15 100 -15 82 0 100 3 100 15 0 12 -18 15 -100
15 -82 0 -100 -3 -100 -15z"/>
<path d="M1007 724 c-17 -17 11 -24 94 -24 72 0 89 3 89 15 0 12 -16 15 -88
15 -49 0 -92 -3 -95 -6z"/>
<path d="M0 85 l0 -85 1080 0 1080 0 0 85 0 85 -1080 0 -1080 0 0 -85z m218
13 c14 5 15 4 2 -10 -9 -10 -17 -12 -21 -6 -4 6 -9 5 -12 -3 -3 -8 -4 -4 -4 8
1 14 5 19 10 14 5 -5 17 -7 25 -3z m78 3 c-18 -7 -18 -8 -3 -14 9 -3 17 -11
17 -16 0 -14 -29 -21 -36 -9 -4 6 -3 8 4 4 6 -3 13 -2 16 3 3 5 -1 11 -9 15
-23 8 -18 26 8 25 20 0 20 -1 3 -8z m31 -28 c-3 -10 -5 -4 -5 12 0 17 2 24 5
18 2 -7 2 -21 0 -30z m112 21 c4 3 7 -3 7 -13 0 -10 -6 -18 -13 -18 -8 0 -13
11 -12 26 0 14 3 20 6 13 2 -6 8 -10 12 -8z m-41 -5 c-9 -6 -8 -12 3 -25 13
-16 12 -16 -8 -6 -14 8 -24 9 -28 2 -9 -15 -25 -2 -25 20 0 14 7 18 35 17 19
-1 29 -4 23 -8z m1322 -14 c5 3 12 0 15 -6 5 -7 1 -10 -10 -7 -10 1 -20 9 -21
16 -1 7 0 8 3 2 2 -5 9 -8 13 -5z m201 -8 c-10 -9 -11 -8 -5 6 3 10 9 15 12
12 3 -3 0 -11 -7 -18z m50 13 c9 13 10 13 6 0 -6 -22 -37 -25 -37 -3 0 15 2
16 10 3 9 -13 11 -13 21 0z m26 -12 c-3 -8 -6 -5 -6 6 -1 11 2 17 5 13 3 -3 4
-12 1 -19z m76 7 c3 -6 -4 -11 -14 -11 -11 0 -19 5 -19 11 0 7 7 12 15 12 8 0
16 -5 18 -12z m-1949 -11 c3 -8 2 -12 -4 -9 -6 3 -10 10 -10 16 0 14 7 11 14
-7z m126 12 c0 -2 -8 -10 -17 -17 -16 -13 -17 -12 -4 4 13 16 21 21 21 13z
m1355 -5 c-9 -8 -36 -10 -30 -2 2 4 11 8 20 8 8 0 13 -3 10 -6z m165 -1 c0 -5
-5 -10 -11 -10 -5 0 -7 5 -4 10 3 6 8 10 11 10 2 0 4 -4 4 -10z m124 2 c2 -4
-6 -8 -19 -8 -13 0 -21 4 -19 8 7 10 31 10 38 0z"/>
<path d="M350 74 c0 -8 5 -12 10 -9 6 3 10 10 10 16 0 5 -4 9 -10 9 -5 0 -10
-7 -10 -16z"/>
</g>
</svg>
